<?xml version="1.0" encoding="utf-8"?>
<!-- Generator: Adobe Illustrator 22.0.0, SVG Export Plug-In . SVG Version: 6.00 Build 0)  -->
<svg version="1.1" id="Layer_1" xmlns="http://www.w3.org/2000/svg" xmlns:xlink="http://www.w3.org/1999/xlink" x="0px" y="0px"
	 viewBox="0 0 240.2 146.7" style="enable-background:new 0 0 240.2 146.7;" xml:space="preserve">
<style type="text/css">
	.st0{fill:#AB892F;}
</style>
<rect x="1.3" y="110.3" class="st0" width="237.6" height="2.8"/>
<g>
	<g>
		<path class="st0" d="M15.6,130.8c0.5-0.1,1-0.1,1.5-0.3c0.6-0.1,1.1-0.2,1.8-0.4l0.6,4c-0.2-0.1-0.5-0.3-0.9-0.4
			c-0.4-0.1-0.9-0.2-1.6-0.3s-1.6-0.1-2.8-0.1v6.2c0,0.8,0.1,1.5,0.3,2c0.2,0.5,0.4,1,0.6,1.4c0.2,0.4,0.5,0.7,0.8,1h-1.7H8.6
			c0.3-0.3,0.6-0.6,0.8-1c0.2-0.4,0.4-0.8,0.6-1.4c0.2-0.5,0.3-1.2,0.3-2v-15.2c0-0.8-0.1-1.5-0.3-2s-0.4-1-0.6-1.4
			c-0.2-0.4-0.5-0.7-0.8-1h5.6h7.2l0.9,2.8c-0.2-0.2-0.6-0.3-1-0.5c-0.4-0.1-0.8-0.2-1.4-0.4c-0.6-0.1-1.3-0.2-2.2-0.2h-3.5v9.2
			C14.6,130.9,15,130.9,15.6,130.8z"/>
		<path class="st0" d="M30.7,141.7c0.2,0.5,0.3,1,0.6,1.3c0.2,0.4,0.5,0.7,0.8,1h-1.6h-5.6c0.3-0.3,0.6-0.6,0.8-1
			c0.2-0.3,0.4-0.8,0.6-1.3c0.2-0.5,0.3-1.2,0.3-2v-11.2c0-0.8-0.1-1.5-0.3-2c-0.2-0.5-0.4-1-0.6-1.3c-0.2-0.4-0.5-0.7-0.8-1h1.6H32
			c-0.3,0.3-0.6,0.6-0.8,1c-0.2,0.4-0.4,0.8-0.6,1.3s-0.2,1.2-0.2,2v11.2C30.4,140.5,30.5,141.2,30.7,141.7z"/>
		<path class="st0" d="M45.8,141.8c1.4-0.2,2.4-0.4,3.2-0.6c0.9-0.3,1.5-0.6,1.9-0.9l-1.7,3.7h-8.7h-5.6c0.3-0.3,0.6-0.6,0.8-1
			c0.2-0.3,0.4-0.8,0.6-1.3c0.2-0.5,0.3-1.2,0.3-2v-11.1c0-0.8-0.1-1.5-0.3-2c-0.2-0.5-0.4-1-0.6-1.4c-0.2-0.4-0.5-0.7-0.8-1h5.6
			h7.1l0.9,2.8c-0.2-0.2-0.6-0.3-1-0.5c-0.4-0.1-0.8-0.2-1.4-0.4c-0.6-0.1-1.3-0.2-2.2-0.2h-3.5v7c0.4,0,0.8,0,1.3-0.1
			c0.5-0.1,1-0.1,1.5-0.3c0.6-0.1,1.1-0.2,1.8-0.4l0.5,4c-0.2-0.1-0.5-0.3-0.9-0.4c-0.4-0.1-0.9-0.2-1.6-0.3
			c-0.7-0.1-1.6-0.1-2.7-0.1v6.7C42.7,142.1,44.4,142,45.8,141.8z"/>
		<path class="st0" d="M64.2,141.8c1.3-0.2,2.4-0.4,3.1-0.6c0.9-0.3,1.5-0.6,1.9-0.9l-1.7,3.7h-8.6H55h-1.6c0.3-0.3,0.6-0.6,0.8-1
			c0.2-0.3,0.4-0.8,0.6-1.3c0.2-0.5,0.3-1.2,0.3-2v-11.1c0-0.8-0.1-1.5-0.3-2c-0.2-0.5-0.4-1-0.6-1.4c-0.2-0.4-0.5-0.7-0.8-1H55h3.9
			h1.6c-0.3,0.3-0.6,0.6-0.8,1c-0.2,0.4-0.4,0.8-0.6,1.4s-0.2,1.2-0.2,2v13.5C61.1,142.1,62.9,142,64.2,141.8z"/>
		<path class="st0" d="M97.2,141.9c0.2,0.4,0.5,0.8,0.8,1c0.3,0.3,0.5,0.5,0.8,0.6c0.3,0.2,0.5,0.3,0.8,0.4h-6.7l-2.2-8.5h-5.7
			l-1.8,8.5h-4.3c0.3-0.2,0.6-0.4,0.9-0.7c0.3-0.3,0.5-0.6,0.8-1c0.3-0.4,0.5-0.9,0.8-1.5l4.3-16.6c0.1-0.4,0.1-0.7,0.1-1
			c0-0.3,0-0.6,0-0.8c0-0.5,0-0.9-0.1-1.2c-0.1-0.3-0.2-0.5-0.2-0.7c-0.1-0.2-0.2-0.4-0.4-0.4h1.7h3.9L97.2,141.9z M90.1,133.2
			l-2.5-9.9l-2.1,9.9H90.1z"/>
		<path class="st0" d="M116.8,141.7c0.2,0.5,0.3,1,0.6,1.3c0.2,0.4,0.5,0.7,0.8,1h-1.6h-2h-0.8l-9.3-14.4v10.1c0,0.8,0.1,1.5,0.2,2
			s0.3,1,0.6,1.3c0.2,0.4,0.5,0.7,0.8,1h-1.6h-2h-1.6c0.3-0.3,0.6-0.6,0.8-1c0.2-0.4,0.4-0.8,0.6-1.3c0.2-0.5,0.3-1.2,0.3-2v-11.1
			c0-0.8-0.1-1.5-0.3-2c-0.2-0.5-0.4-1-0.6-1.3c-0.2-0.4-0.5-0.7-0.8-1h1.6h2h0.8l9.3,14.3v-10c0-0.8-0.1-1.5-0.3-2s-0.4-1-0.6-1.3
			c-0.2-0.4-0.5-0.7-0.8-1h1.6h2h1.6c-0.3,0.3-0.6,0.6-0.8,1c-0.2,0.4-0.4,0.8-0.6,1.3s-0.2,1.2-0.2,2v11.1
			C116.6,140.5,116.6,141.1,116.8,141.7z"/>
		<path class="st0" d="M130.7,124.2c0.6,0,1.2,0,1.6,0.1c0.5,0.1,0.8,0.1,1.1,0.2c0.4,0.1,0.7,0.2,0.9,0.3l-0.7,5.8h-1.4
			c0-0.6,0-1.2-0.1-1.8s-0.2-1-0.4-1.5c-0.2-0.4-0.4-0.7-0.6-1c-0.2-0.2-0.5-0.4-0.8-0.4c-1.2,0-2.1,0.3-2.7,0.8
			c-0.7,0.5-1.2,1.2-1.5,2c-0.4,0.8-0.6,1.7-0.7,2.8c-0.1,1-0.1,2.1-0.1,3.1s0.1,2.1,0.3,3c0.2,0.9,0.5,1.8,0.9,2.5
			c0.4,0.7,0.9,1.3,1.5,1.7c0.6,0.4,1.3,0.6,2.1,0.6c1,0,1.8-0.1,2.4-0.2c0.6-0.1,1.1-0.2,1.5-0.4c0.4-0.2,0.8-0.4,1-0.6
			c-0.4,0.6-0.8,1.1-1.3,1.5c-0.4,0.4-1,0.7-1.7,1c-0.7,0.3-1.4,0.5-2.3,0.5c-1.5,0-2.8-0.2-3.9-0.7c-1.1-0.4-2-1.1-2.8-1.9
			c-0.7-0.8-1.3-1.8-1.6-2.9c-0.4-1.1-0.5-2.4-0.5-3.7c0-1.9,0.2-3.5,0.5-4.9s0.9-2.5,1.6-3.4c0.8-0.9,1.8-1.5,3.1-2
			C127.1,124.4,128.7,124.2,130.7,124.2z"/>
		<path class="st0" d="M148.4,141.8c1.4-0.2,2.4-0.4,3.2-0.6c0.9-0.3,1.5-0.6,1.9-0.9l-1.7,3.7h-8.7h-5.6c0.3-0.3,0.6-0.6,0.8-1
			c0.2-0.3,0.4-0.8,0.6-1.3c0.2-0.5,0.3-1.2,0.3-2v-11.1c0-0.8-0.1-1.5-0.3-2c-0.2-0.5-0.4-1-0.6-1.4c-0.2-0.4-0.5-0.7-0.8-1h5.6
			h7.1l0.9,2.8c-0.2-0.2-0.6-0.3-1-0.5c-0.4-0.1-0.8-0.2-1.4-0.4c-0.6-0.1-1.3-0.2-2.2-0.2h-3.5v7c0.4,0,0.8,0,1.3-0.1
			c0.5-0.1,1-0.1,1.5-0.3c0.6-0.1,1.1-0.2,1.8-0.4l0.5,4c-0.2-0.1-0.5-0.3-0.9-0.4c-0.4-0.1-0.9-0.2-1.6-0.3
			c-0.7-0.1-1.6-0.1-2.7-0.1v6.7C145.3,142.1,147,142,148.4,141.8z"/>
		<path class="st0" d="M159.9,123.6c0.4,0,0.8,0,1.3,0.1c0.4,0.1,0.8,0.2,1.2,0.2c0.4,0.1,0.8,0.2,1.2,0.3v3.3
			c-0.3-0.8-0.8-1.4-1.3-1.8s-1.3-0.6-2.1-0.6c-0.2,0-0.5,0.2-0.8,0.6c-0.3,0.4-0.5,0.9-0.5,1.6c0,0.9,0.1,1.7,0.4,2.4
			c0.3,0.7,0.7,1.2,1.1,1.8c0.4,0.5,0.9,1,1.4,1.5c0.5,0.5,1,1,1.4,1.6s0.8,1.3,1.1,2.1c0.3,0.8,0.4,1.7,0.4,2.8
			c0,0.9-0.2,1.6-0.6,2.2c-0.4,0.6-0.8,1.1-1.4,1.5c-0.5,0.4-1.1,0.7-1.7,0.9s-1.1,0.3-1.5,0.3c-0.6,0-1.1-0.1-1.6-0.2
			c-0.5-0.2-0.9-0.3-1.3-0.5c-0.4-0.2-0.8-0.5-1.2-0.8v-3.1c0.3,0.4,0.5,0.7,0.8,1c0.3,0.3,0.5,0.6,0.8,0.8c0.2,0.2,0.5,0.4,0.8,0.5
			s0.6,0.2,0.9,0.2c0.6,0,1.1-0.2,1.4-0.6s0.4-1,0.4-1.8c0-0.9-0.1-1.6-0.4-2.3c-0.3-0.6-0.6-1.1-1.1-1.6c-0.4-0.5-0.9-0.9-1.4-1.3
			c-0.5-0.4-1-0.9-1.4-1.4c-0.4-0.5-0.8-1.2-1.1-1.9s-0.4-1.7-0.4-2.8c0-0.7,0.1-1.4,0.3-2c0.2-0.6,0.5-1.1,0.9-1.6
			c0.4-0.4,0.9-0.8,1.5-1C158.4,123.7,159.1,123.6,159.9,123.6z"/>
		<path class="st0" d="M176.7,141.7c0.2,0.5,0.4,1,0.6,1.4c0.2,0.4,0.5,0.7,0.8,1h-1.7h-5.6c0.3-0.3,0.6-0.6,0.8-1
			c0.2-0.4,0.4-0.8,0.6-1.4c0.2-0.5,0.3-1.2,0.3-2v-11.1c0-0.6,0-1.1-0.1-1.5c-0.1-0.5-0.2-0.9-0.3-1.2c-1.1,0-2,0-2.7,0.1
			c-0.7,0.1-1.3,0.2-1.7,0.3c-0.4,0.1-0.7,0.2-0.9,0.3c-0.2,0.1-0.3,0.2-0.3,0.2l0.9-2.6h3.5h3.6h3.6h3.5l0.9,2.6
			c0,0-0.1-0.1-0.3-0.2c-0.2-0.1-0.5-0.2-0.9-0.3c-0.4-0.1-1-0.2-1.7-0.3c-0.7-0.1-1.6-0.1-2.7-0.1c-0.1,0.3-0.2,0.7-0.3,1.2
			c-0.1,0.5-0.1,1-0.1,1.5v11.1C176.4,140.5,176.5,141.2,176.7,141.7z"/>
		<path class="st0" d="M191.8,137.9c-0.3,0-0.6,0-0.8,0c-0.2,0-0.4,0-0.6,0v1.8c0,0.8,0.1,1.5,0.2,2c0.2,0.5,0.3,1,0.6,1.3
			c0.2,0.4,0.5,0.7,0.8,1h-1.6h-5.5c0.3-0.3,0.6-0.6,0.8-1c0.2-0.3,0.4-0.8,0.6-1.3c0.2-0.5,0.3-1.2,0.3-2v-11.2
			c0-0.8-0.1-1.4-0.3-2c-0.2-0.5-0.4-1-0.6-1.3c-0.2-0.4-0.5-0.7-0.8-1h5.5h4.3c0.4,0,0.8,0.1,1.4,0.2c0.6,0.2,1.1,0.5,1.7,0.9
			c0.5,0.4,1,1.1,1.4,1.8c0.4,0.8,0.6,1.8,0.6,3c0,1.1-0.2,2.2-0.5,3.1c-0.3,0.9-0.8,1.7-1.3,2.3s-1.1,1.1-1.8,1.5
			c-0.7,0.4-1.3,0.5-2,0.5c0.4,0.7,1,1.1,1.6,1.3c0.7,0.2,1.3,0.3,1.9,0.3c0.3,0,0.5,0,0.8,0c0.2,0,0.4-0.1,0.6-0.1
			c0.2,0,0.4-0.1,0.6-0.1c0,0.1,0,0.3-0.1,0.4c0,0.1,0,0.2,0,0.4s0,0.3,0,0.5c0,0.6,0.1,1.3,0.2,2.1c0.2,0.8,0.5,1.5,1,2
			c-1,0-1.9-0.1-2.7-0.4c-0.8-0.3-1.5-0.7-2.2-1.1c-0.7-0.4-1.2-0.9-1.7-1.5c-0.5-0.5-0.9-1.1-1.3-1.6c-0.4-0.5-0.6-0.9-0.8-1.3
			C192,138.2,191.8,138,191.8,137.9z M190.4,136c1,0,1.9-0.1,2.6-0.3s1.2-0.5,1.6-0.9c0.4-0.4,0.7-0.9,0.8-1.6
			c0.2-0.6,0.2-1.4,0.2-2.4c0-1.3-0.2-2.3-0.5-3c-0.3-0.7-0.7-1.2-1.2-1.5c-0.5-0.3-1.1-0.5-1.7-0.5c-0.6,0-1.3,0-1.9,0V136z"/>
		<path class="st0" d="M217.5,141.9c0.2,0.4,0.5,0.8,0.7,1s0.5,0.5,0.7,0.7c0.3,0.2,0.5,0.3,0.8,0.4h-6.3l-1.2-4.4h-6.1l-1,4.4h-2.2
			h-1.6c0.1,0,0.3-0.1,0.4-0.2c0.2-0.1,0.3-0.3,0.5-0.4c0.2-0.2,0.3-0.3,0.4-0.5s0.2-0.3,0.3-0.4c0.5-0.8,0.9-1.7,1.2-2.7
			c0.2-1,0.5-1.9,0.7-2.8l2.3-8.6c0.1-0.7,0.2-1.4,0.2-1.9c0-0.5,0-0.8-0.1-1.1c-0.1-0.3-0.2-0.5-0.2-0.7c-0.1-0.2-0.2-0.3-0.4-0.4
			h1.6h4L217.5,141.9z M211.7,137.4l-2.7-10.1l-2.3,10.1H211.7z"/>
		<path class="st0" d="M232.1,141.8c1.3-0.2,2.4-0.4,3.1-0.6c0.9-0.3,1.5-0.6,1.9-0.9l-1.7,3.7h-8.6h-3.9h-1.6
			c0.3-0.3,0.6-0.6,0.8-1c0.2-0.3,0.4-0.8,0.6-1.3c0.2-0.5,0.3-1.2,0.3-2v-11.1c0-0.8-0.1-1.5-0.3-2c-0.2-0.5-0.4-1-0.6-1.4
			c-0.2-0.4-0.5-0.7-0.8-1h1.6h3.9h1.6c-0.3,0.3-0.6,0.6-0.8,1c-0.2,0.4-0.4,0.8-0.6,1.4s-0.2,1.2-0.2,2v13.5
			C229,142.1,230.7,142,232.1,141.8z"/>
	</g>
</g>
<path class="st0" d="M164.4,50.4c0,5.2-0.9,10.2-2.6,14.8c-0.7,1.9-1.5,3.8-2.4,5.5c0.3-0.6,0.5-1.2,0.5-1.9c0-2.2-1.7-4.2-4.5-3.9
	c-5.5,0.4-10.5,2.4-14.6,5.6c4.4-4.8,7.1-11.3,7.1-18.3c0-5.5-1.7-10.7-4.5-15l20.3,4.7C164.1,44.6,164.4,47.4,164.4,50.4z"/>
<path class="st0" d="M138.8,104.8c1.8-0.1,3.5-0.4,5.1-1c4.4-1.6,7.9-5,9.7-9.2c0-0.1,0.1-0.2,0.1-0.3c2.5-5.9,8.3-10.1,15.1-10.2
	c-2.2-2.4-3.6-5.5-4-8.9c-2.8,3.4-6.5,6.1-10.6,7.8c-3.2,1.3-6.7,2-10.3,2c-5,0-9.7-1.4-13.7-3.7c0,0-0.1,0-0.1-0.1
	c-1.9-1-3.8-1.8-5.9-2.4c-2.3-0.7-4.8-1-7.3-1c-1,0-1.9,0.1-2.8,0.1c3.4,1.7,5.7,5.2,5.7,9.3c0,1.4-0.3,2.8-0.8,4
	c1.8,1,3.3,2.5,4.3,4.4c0.8,1.4,1.2,3.1,1.2,4.8c0,1.6-0.4,3.1-1,4.4h-2.7l-9.8-27c-4.6,0.9-9.4,1.4-14.4,1.4
	c-7.8,0-15.3-1.3-22.4-3.6c0,0,0,8.2,0,8.4c0,1.8,1,4.5,3.4,5.7c5.3,2.7,9.2,7.9,9.4,15.1H1.3v2.8h237.6v-2.8H138.8z"/>
<path class="st0" d="M93.8,71c-2.2-0.4-4.5-0.5-6.9-0.5c-9.8,0-18.8,3.2-26,8.5C76,66,85.5,46.7,85.5,25.2c0-0.5,0-1,0-1.4L93.8,71z
	"/>
<path class="st0" d="M133.8,28.3c-3.9-2.2-8.4-3.4-13.2-3.4c-5,0-9.7,1.3-13.7,3.7c2.8-3,4.5-7,4.5-11.4c0-3.2-0.9-6.1-2.4-8.7
	l19.9,4.6C131.9,17.4,133.7,22.7,133.8,28.3z"/>
<path class="st0" d="M120.6,3.7v4.1c-3.7-1.9-8-3-12.5-3c-5.3,0-10.3,1.5-14.5,4.2c4.8-4.2,11.1-6.8,18-6.8
	C114.8,2.1,117.8,2.7,120.6,3.7z"/>
<path class="st0" d="M135.8,35.4l-38.9-9c4.5,6.9,7.1,15.1,7.1,23.9c0,9.1-2.7,17.5-7.4,24.5c4.5-3.3,10.1-5.3,16.1-5.3
	c7.6,0,14.4,3.1,19.3,8.1c3.5-8.4,5.4-17.6,5.4-27.3C137.4,45.2,136.9,40.2,135.8,35.4z M131,56.5c-2.5-2.3-5.8-3.9-9.4-4.3
	c0.4,3.6,1.9,6.9,4.3,9.4h-10.5c2.3-2.6,3.9-5.8,4.3-9.4c-3.6,0.4-6.9,1.9-9.4,4.3V46c2.5,2.3,5.8,3.9,9.4,4.3
	c-0.4-3.6-1.9-6.9-4.3-9.4h10.5c-2.3,2.6-3.9,5.8-4.3,9.4c3.6-0.4,6.9-1.9,9.4-4.3V56.5z"/>
</svg>
